<?xml version="1.0" encoding="UTF-8"?>
<svg version="1.1" xmlns="http://www.w3.org/2000/svg" width="100" height="100">
<path d="M0 0 C1.02141083 -0.00945648 2.04282166 -0.01891296 3.09518433 -0.02865601 C4.74213791 -0.01954697 4.74213791 -0.01954697 6.42236328 -0.01025391 C7.55666779 -0.01312408 8.69097229 -0.01599426 9.85964966 -0.01895142 C12.25865172 -0.02099252 14.65767041 -0.01545946 17.05664062 -0.00292969 C20.72189777 0.01309276 24.38604717 -0.00276238 28.05126953 -0.02197266 C30.38330321 -0.01998965 32.7153362 -0.01614479 35.04736328 -0.01025391 C36.68824417 -0.01936295 36.68824417 -0.01936295 38.36227417 -0.02865601 C43.90137895 0.02231186 48.14269719 0.1346104 52.86767578 3.38818359 C54.3063298 6.26549163 54.01888035 8.76201075 54.04467773 11.97753906 C54.05124893 12.65415588 54.05782013 13.33077271 54.06459045 14.02789307 C54.08432574 16.27038683 54.09598576 18.51281366 54.10595703 20.75537109 C54.11003256 21.52082371 54.11410809 22.28627632 54.11830711 23.07492447 C54.13916771 27.12546774 54.15347008 31.17597712 54.1628418 35.2265625 C54.17391323 39.41217526 54.20832099 43.5972574 54.2480135 47.78268242 C54.2741443 50.99973547 54.28253039 54.21666134 54.28612328 57.43381119 C54.29099755 58.97680373 54.30263554 60.51979027 54.32116127 62.06267929 C54.34548181 64.22222863 54.34460183 66.38039502 54.33764648 68.54003906 C54.34351273 69.76866669 54.34937897 70.99729431 54.35542297 72.26315308 C53.77307817 75.99427716 52.84162831 77.13581433 49.86767578 79.38818359 C46.89936769 80.37761962 44.9159933 80.52593754 41.81713867 80.54931641 C40.78919693 80.55892395 39.76125519 80.56853149 38.7021637 80.57843018 C37.59275925 80.58268005 36.4833548 80.58692993 35.34033203 80.59130859 C34.19986923 80.59700867 33.05940643 80.60270874 31.88438416 80.60858154 C29.47102792 80.61803165 27.05765877 80.62456556 24.64428711 80.62841797 C20.94833991 80.63813583 17.25294585 80.66916487 13.55712891 80.70068359 C11.21403326 80.70721241 8.87093362 80.71246336 6.52783203 80.71630859 C5.42045181 80.7286554 4.31307159 80.7410022 3.1721344 80.75372314 C2.1410405 80.75072205 1.10994659 80.74772095 0.04760742 80.74462891 C-0.85823593 80.74827454 -1.76407928 80.75192017 -2.69737244 80.75567627 C-5.61972309 80.3146234 -6.99862492 79.40236663 -9.13232422 77.38818359 C-9.66032097 74.62676056 -9.31831403 72.22452814 -9.13232422 69.38818359 C-9.93669922 69.24380859 -10.74107422 69.09943359 -11.56982422 68.95068359 C-14.13232422 68.38818359 -14.13232422 68.38818359 -15.13232422 67.38818359 C-15.38232422 63.95068359 -15.38232422 63.95068359 -15.13232422 60.38818359 C-12.13232422 58.38818359 -12.13232422 58.38818359 -9.13232422 58.38818359 C-9.13232422 56.73818359 -9.13232422 55.08818359 -9.13232422 53.38818359 C-9.93669922 53.24380859 -10.74107422 53.09943359 -11.56982422 52.95068359 C-14.13232422 52.38818359 -14.13232422 52.38818359 -15.13232422 51.38818359 C-15.31982422 48.45068359 -15.31982422 48.45068359 -15.13232422 45.38818359 C-14.47232422 44.72818359 -13.81232422 44.06818359 -13.13232422 43.38818359 C-11.81232422 43.38818359 -10.49232422 43.38818359 -9.13232422 43.38818359 C-9.13232422 41.40818359 -9.13232422 39.42818359 -9.13232422 37.38818359 C-9.93669922 37.24380859 -10.74107422 37.09943359 -11.56982422 36.95068359 C-14.13232422 36.38818359 -14.13232422 36.38818359 -15.13232422 35.38818359 C-15.31982422 32.45068359 -15.31982422 32.45068359 -15.13232422 29.38818359 C-14.47232422 28.72818359 -13.81232422 28.06818359 -13.13232422 27.38818359 C-11.81232422 27.38818359 -10.49232422 27.38818359 -9.13232422 27.38818359 C-9.13232422 25.73818359 -9.13232422 24.08818359 -9.13232422 22.38818359 C-9.93669922 22.24380859 -10.74107422 22.09943359 -11.56982422 21.95068359 C-14.13232422 21.38818359 -14.13232422 21.38818359 -15.13232422 20.38818359 C-15.38232422 16.95068359 -15.38232422 16.95068359 -15.13232422 13.38818359 C-12.13232422 11.38818359 -12.13232422 11.38818359 -9.13232422 11.38818359 C-9.21482422 10.13005859 -9.29732422 8.87193359 -9.38232422 7.57568359 C-9.52294922 5.43115234 -9.52294922 5.43115234 -9.13232422 3.38818359 C-6.13447232 0.5666854 -4.06517026 0.01081927 0 0 Z M-5.13232422 5.38818359 C-5.13232422 7.36818359 -5.13232422 9.34818359 -5.13232422 11.38818359 C-4.14232422 11.38818359 -3.15232422 11.38818359 -2.13232422 11.38818359 C-2.13232422 12.70818359 -2.13232422 14.02818359 -2.13232422 15.38818359 C-3.12232422 15.38818359 -4.11232422 15.38818359 -5.13232422 15.38818359 C-5.13232422 19.34818359 -5.13232422 23.30818359 -5.13232422 27.38818359 C-4.14232422 27.38818359 -3.15232422 27.38818359 -2.13232422 27.38818359 C-2.13232422 28.70818359 -2.13232422 30.02818359 -2.13232422 31.38818359 C-3.12232422 31.38818359 -4.11232422 31.38818359 -5.13232422 31.38818359 C-5.13232422 35.34818359 -5.13232422 39.30818359 -5.13232422 43.38818359 C-4.14232422 43.38818359 -3.15232422 43.38818359 -2.13232422 43.38818359 C-2.13232422 44.70818359 -2.13232422 46.02818359 -2.13232422 47.38818359 C-3.12232422 47.38818359 -4.11232422 47.38818359 -5.13232422 47.38818359 C-5.13232422 51.01818359 -5.13232422 54.64818359 -5.13232422 58.38818359 C-4.14232422 58.38818359 -3.15232422 58.38818359 -2.13232422 58.38818359 C-2.13232422 59.70818359 -2.13232422 61.02818359 -2.13232422 62.38818359 C-3.12232422 62.38818359 -4.11232422 62.38818359 -5.13232422 62.38818359 C-5.13232422 66.67818359 -5.13232422 70.96818359 -5.13232422 75.38818359 C1.52456574 75.43751638 8.18134996 75.47387115 14.83837891 75.49804688 C17.10434827 75.50812218 19.37030459 75.52178278 21.63623047 75.5390625 C24.88789079 75.5632437 28.13937965 75.57465122 31.39111328 75.58349609 C32.40885834 75.59381866 33.42660339 75.60414124 34.47518921 75.61477661 C35.41601349 75.61492767 36.35683777 75.61507874 37.32617188 75.61523438 C38.1566806 75.6196756 38.98718933 75.62411682 39.84286499 75.62869263 C42.09548585 75.5728843 42.09548585 75.5728843 43.86767578 73.38818359 C44.17532531 70.52856849 44.17532531 70.52856849 44.12646484 67.13427734 C44.13276917 65.81951416 44.13907349 64.50475098 44.14556885 63.15014648 C44.14198918 61.7086575 44.13788725 60.26716973 44.13330078 58.82568359 C44.13464746 57.35359635 44.13658801 55.88150954 44.13909912 54.40942383 C44.14205027 51.32254812 44.1377531 48.23578806 44.12841797 45.14892578 C44.11702334 41.18746231 44.12358288 37.22626981 44.1355629 33.26481628 C44.14278179 30.22454783 44.14049346 27.18434386 44.13530731 24.14407349 C44.13397089 22.6831967 44.13561828 21.2223141 44.14026642 19.76144409 C44.14533184 17.72166044 44.13624557 15.68185633 44.12646484 13.64208984 C44.12487366 12.48008057 44.12328247 11.31807129 44.12164307 10.12084961 C44.1474882 7.24223744 44.1474882 7.24223744 41.86767578 5.38818359 C39.76617415 5.09638179 39.76617415 5.09638179 37.32617188 5.16113281 C36.3853476 5.16128387 35.44452332 5.16143494 34.47518921 5.16159058 C32.94857162 5.17707443 32.94857162 5.17707443 31.39111328 5.19287109 C30.35072906 5.19570099 29.31034485 5.19853088 28.23843384 5.20144653 C24.90639884 5.21266656 21.57462992 5.23777445 18.24267578 5.26318359 C15.98747132 5.27321104 13.73226266 5.28233729 11.47705078 5.29052734 C5.94050124 5.31261181 0.40410751 5.34610721 -5.13232422 5.38818359 Z M47.86767578 6.38818359 C47.86767578 28.82818359 47.86767578 51.26818359 47.86767578 74.38818359 C48.85767578 73.89318359 48.85767578 73.89318359 49.86767578 73.38818359 C49.86767578 51.60818359 49.86767578 29.82818359 49.86767578 7.38818359 C49.20767578 7.05818359 48.54767578 6.72818359 47.86767578 6.38818359 Z M-10.13232422 15.38818359 C-10.13232422 18.38818359 -10.13232422 18.38818359 -10.13232422 18.38818359 Z M-11.13232422 31.38818359 C-11.13232422 32.04818359 -11.13232422 32.70818359 -11.13232422 33.38818359 C-10.47232422 33.38818359 -9.81232422 33.38818359 -9.13232422 33.38818359 C-9.13232422 32.72818359 -9.13232422 32.06818359 -9.13232422 31.38818359 C-9.79232422 31.38818359 -10.45232422 31.38818359 -11.13232422 31.38818359 Z M-11.13232422 47.38818359 C-11.13232422 48.04818359 -11.13232422 48.70818359 -11.13232422 49.38818359 C-10.47232422 49.38818359 -9.81232422 49.38818359 -9.13232422 49.38818359 C-9.13232422 48.72818359 -9.13232422 48.06818359 -9.13232422 47.38818359 C-9.79232422 47.38818359 -10.45232422 47.38818359 -11.13232422 47.38818359 Z M-10.13232422 62.38818359 C-10.13232422 65.38818359 -10.13232422 65.38818359 -10.13232422 65.38818359 Z " fill="#7246FF" transform="translate(29.13232421875,9.61181640625)"/>
<path d="M0 0 C1.093125 0.00257812 2.18625 0.00515625 3.3125 0.0078125 C4.405625 0.00523438 5.49875 0.00265625 6.625 0 C9.3125 0.1328125 9.3125 0.1328125 10.3125 1.1328125 C10.41225032 3.64417354 10.45132183 6.12184665 10.4375 8.6328125 C10.44136719 9.33535156 10.44523437 10.03789063 10.44921875 10.76171875 C10.43911378 16.00619872 10.43911378 16.00619872 9.3125 17.1328125 C7.31450428 17.23155066 5.31292842 17.26253049 3.3125 17.2578125 C2.219375 17.26039062 1.12625 17.26296875 0 17.265625 C-2.6875 17.1328125 -2.6875 17.1328125 -3.6875 16.1328125 C-3.78725032 13.62145146 -3.82632183 11.14377835 -3.8125 8.6328125 C-3.81636719 7.93027344 -3.82023437 7.22773437 -3.82421875 6.50390625 C-3.81205012 0.1883862 -3.81205012 0.1883862 0 0 Z " fill="#98BCFF" transform="translate(35.6875,31.8671875)"/>
<path d="M0 0 C11.88 0 23.76 0 36 0 C36 1.32 36 2.64 36 4 C24.12 4 12.24 4 0 4 C0 2.68 0 1.36 0 0 Z " fill="#9736FF" transform="translate(32,64)"/>
<path d="M0 0 C11.88 0 23.76 0 36 0 C36 1.32 36 2.64 36 4 C24.12 4 12.24 4 0 4 C0 2.68 0 1.36 0 0 Z " fill="#873DFF" transform="translate(32,57)"/>
<path d="M0 0 C11.88 0 23.76 0 36 0 C36 1.32 36 2.64 36 4 C24.12 4 12.24 4 0 4 C0 2.68 0 1.36 0 0 Z " fill="#7A43FF" transform="translate(32,51)"/>
<path d="M0 0 C6.6 0 13.2 0 20 0 C20 1.32 20 2.64 20 4 C13.4 4 6.8 4 0 4 C0 2.68 0 1.36 0 0 Z " fill="#6C49FF" transform="translate(48,45)"/>
<path d="M0 0 C6.6 0 13.2 0 20 0 C20 1.32 20 2.64 20 4 C13.4 4 6.8 4 0 4 C0 2.68 0 1.36 0 0 Z " fill="#5D4FFF" transform="translate(48,39)"/>
<path d="M0 0 C6.6 0 13.2 0 20 0 C20 1.32 20 2.64 20 4 C13.4 4 6.8 4 0 4 C0 2.68 0 1.36 0 0 Z " fill="#4E56FF" transform="translate(48,32)"/>
<path d="M0 0 C6.6 0 13.2 0 20 0 C20 1.32 20 2.64 20 4 C13.4 4 6.8 4 0 4 C0 2.68 0 1.36 0 0 Z " fill="#405CFF" transform="translate(48,26)"/>
<path d="M0 0 C5.94 0 11.88 0 18 0 C18 1.32 18 2.64 18 4 C12.06 4 6.12 4 0 4 C0 2.68 0 1.36 0 0 Z " fill="#9D33FF" transform="translate(32,70)"/>
<path d="M0 0 C4.29 0 8.58 0 13 0 C13.33 1.32 13.66 2.64 14 4 C13 5 13 5 10.27734375 5.09765625 C8.62412109 5.08025391 8.62412109 5.08025391 6.9375 5.0625 C5.28041016 5.04896484 5.28041016 5.04896484 3.58984375 5.03515625 C2.73519531 5.02355469 1.88054688 5.01195312 1 5 C0.67 3.35 0.34 1.7 0 0 Z " fill="#D1AFFF" transform="translate(32,44)"/>
<path d="M0 0 C4.62 0 9.24 0 14 0 C14 1.32 14 2.64 14 4 C9.38 4 4.76 4 0 4 C0 2.68 0 1.36 0 0 Z " fill="#674BFF" transform="translate(32,26)"/>
<path d="M0 0 C3.96 0 7.92 0 12 0 C12.33 1.32 12.66 2.64 13 4 C8.38 4 3.76 4 -1 4 C-0.67 2.68 -0.34 1.36 0 0 Z " fill="#78C3FF" transform="translate(33,32)"/>
<path d="M0 0 C4.62 0 9.24 0 14 0 C13.67 1.32 13.34 2.64 13 4 C8.71 3.67 4.42 3.34 0 3 C0 2.01 0 1.02 0 0 Z " fill="#B5B6FF" transform="translate(32,41)"/>
</svg>
